<svg width="12" height="12" viewBox="0 0 12 12" fill="none" xmlns="http://www.w3.org/2000/svg">
<path fill-rule="evenodd" clip-rule="evenodd" d="M6.07141 1.81495L8.95813 5.06495C9.00969 5.12589 8.96633 5.21847 8.88665 5.21847H8.15188C8.13822 5.21828 8.12476 5.21515 8.11243 5.20928C8.10009 5.20342 8.08917 5.19496 8.0804 5.18448L5.99993 2.89777L3.91946 5.18448C3.90188 5.20675 3.8761 5.21847 3.84798 5.21847H3.11321C3.09538 5.21857 3.0779 5.21355 3.06284 5.204C3.04778 5.19446 3.03577 5.1808 3.02824 5.16463C3.02072 5.14847 3.01799 5.13049 3.02038 5.11282C3.02277 5.09515 3.03018 5.07854 3.04173 5.06495L5.92727 1.81495C5.96477 1.77042 6.03391 1.77042 6.07141 1.81495ZM5.92861 10.1851L3.04189 6.93508C2.99033 6.87414 3.03369 6.78156 3.11338 6.78156H3.84814C3.8618 6.78175 3.87526 6.78488 3.88759 6.79075C3.89993 6.79661 3.91086 6.80507 3.91962 6.81555L6.00009 9.10227L8.08056 6.81555C8.09814 6.79328 8.12392 6.78156 8.15205 6.78156H8.88681C8.90464 6.78146 8.92213 6.78648 8.93719 6.79603C8.95225 6.80557 8.96425 6.81923 8.97178 6.8354C8.97931 6.85156 8.98204 6.86954 8.97965 6.88721C8.97726 6.90488 8.96985 6.92149 8.9583 6.93508L6.07275 10.1851C6.03525 10.2296 5.96611 10.2296 5.92861 10.1851Z" fill="#595959"/>
</svg>
