<svg width="12" height="14" viewBox="0 0 12 14" fill="none" xmlns="http://www.w3.org/2000/svg">
<path d="M8.07344 9.45625C8.06188 9.44015 8.04662 9.42706 8.02894 9.41809C8.01127 9.40912 7.9917 9.40452 7.97188 9.40469H7.28125C7.17969 9.40469 7.12031 9.52031 7.17969 9.60312L8.33281 11.1984C8.38281 11.2672 8.48438 11.2672 8.53438 11.1984L10.3188 8.72969C10.3781 8.64688 10.3188 8.53125 10.2172 8.53125H9.525C9.48438 8.53125 9.44687 8.55 9.42344 8.58281L8.43125 9.95469L8.07344 9.45625ZM8.75 3.78125V3.03125C8.75 2.9625 8.69375 2.90625 8.625 2.90625H2.625C2.55625 2.90625 2.5 2.9625 2.5 3.03125V3.78125C2.5 3.85 2.55625 3.90625 2.625 3.90625H8.625C8.69375 3.90625 8.75 3.85 8.75 3.78125ZM2.625 5.15625C2.55625 5.15625 2.5 5.2125 2.5 5.28125V6.03125C2.5 6.1 2.55625 6.15625 2.625 6.15625H5.5C5.56875 6.15625 5.625 6.1 5.625 6.03125V5.28125C5.625 5.2125 5.56875 5.15625 5.5 5.15625H2.625ZM5.5 12.3125H1.25V1.3125H10V5.9375C10 6.00625 10.0562 6.0625 10.125 6.0625H11C11.0688 6.0625 11.125 6.00625 11.125 5.9375V0.6875C11.125 0.410937 10.9016 0.1875 10.625 0.1875H0.625C0.348437 0.1875 0.125 0.410937 0.125 0.6875V12.9375C0.125 13.2141 0.348437 13.4375 0.625 13.4375H5.5C5.56875 13.4375 5.625 13.3813 5.625 13.3125V12.4375C5.625 12.3687 5.56875 12.3125 5.5 12.3125ZM11.7906 7.3L8.79062 6.25781C8.77656 6.25313 8.76406 6.25156 8.75 6.25156C8.73594 6.25156 8.72188 6.25313 8.70938 6.25781L5.70937 7.3C5.68487 7.30832 5.66356 7.32409 5.64844 7.34509C5.63331 7.3661 5.62512 7.3913 5.625 7.41719V11.3406C5.625 11.3797 5.64219 11.4156 5.67344 11.4391L8.67344 13.7859C8.69531 13.8031 8.72344 13.8125 8.75 13.8125C8.77656 13.8125 8.80469 13.8031 8.82656 13.7859L11.8266 11.4391C11.8563 11.4156 11.875 11.3797 11.875 11.3406V7.41719C11.875 7.36406 11.8406 7.31719 11.7906 7.3ZM10.9062 10.9328L8.75 12.6187L6.59375 10.9328V8.01562L8.75 7.26562L10.9062 8.01562V10.9328Z" fill="#262626"/>
</svg>
